<mxfile host="app.diagrams.net" modified="2024-06-19T00:04:05.788Z" agent="Mozilla/5.0 (Windows NT 10.0; Win64; x64) AppleWebKit/537.36 (KHTML, like Gecko) Chrome/126.0.0.0 Safari/537.36" etag="LybuOgRbrYF8_S0aYV7D" version="24.5.5" type="device">
  <diagram name="Страница — 1" id="y5prwohk2vhtFyD8Ihpn">
    <mxGraphModel dx="880" dy="434" grid="1" gridSize="10" guides="1" tooltips="1" connect="1" arrows="1" fold="1" page="1" pageScale="1" pageWidth="827" pageHeight="1169" math="0" shadow="0">
      <root>
        <mxCell id="0" />
        <mxCell id="1" parent="0" />
        <mxCell id="AqbD70TO4c_D7pka246Y-15" style="rounded=0;orthogonalLoop=1;jettySize=auto;html=1;exitX=1;exitY=0.3333333333333333;exitDx=0;exitDy=0;exitPerimeter=0;entryX=0;entryY=0.5;entryDx=0;entryDy=0;" edge="1" parent="1" source="AqbD70TO4c_D7pka246Y-1" target="AqbD70TO4c_D7pka246Y-2">
          <mxGeometry relative="1" as="geometry" />
        </mxCell>
        <mxCell id="AqbD70TO4c_D7pka246Y-16" style="rounded=0;orthogonalLoop=1;jettySize=auto;html=1;exitX=1;exitY=0.3333333333333333;exitDx=0;exitDy=0;exitPerimeter=0;entryX=0;entryY=0.5;entryDx=0;entryDy=0;" edge="1" parent="1" source="AqbD70TO4c_D7pka246Y-1" target="AqbD70TO4c_D7pka246Y-4">
          <mxGeometry relative="1" as="geometry" />
        </mxCell>
        <mxCell id="AqbD70TO4c_D7pka246Y-17" style="rounded=0;orthogonalLoop=1;jettySize=auto;html=1;exitX=1;exitY=0.3333333333333333;exitDx=0;exitDy=0;exitPerimeter=0;entryX=0;entryY=0.5;entryDx=0;entryDy=0;" edge="1" parent="1" source="AqbD70TO4c_D7pka246Y-1" target="AqbD70TO4c_D7pka246Y-7">
          <mxGeometry relative="1" as="geometry" />
        </mxCell>
        <mxCell id="AqbD70TO4c_D7pka246Y-18" style="rounded=0;orthogonalLoop=1;jettySize=auto;html=1;exitX=1;exitY=0.3333333333333333;exitDx=0;exitDy=0;exitPerimeter=0;entryX=0;entryY=0.5;entryDx=0;entryDy=0;" edge="1" parent="1" source="AqbD70TO4c_D7pka246Y-1" target="AqbD70TO4c_D7pka246Y-9">
          <mxGeometry relative="1" as="geometry" />
        </mxCell>
        <mxCell id="AqbD70TO4c_D7pka246Y-19" style="rounded=0;orthogonalLoop=1;jettySize=auto;html=1;exitX=1;exitY=0.3333333333333333;exitDx=0;exitDy=0;exitPerimeter=0;entryX=0;entryY=0.5;entryDx=0;entryDy=0;" edge="1" parent="1" source="AqbD70TO4c_D7pka246Y-1" target="AqbD70TO4c_D7pka246Y-12">
          <mxGeometry relative="1" as="geometry" />
        </mxCell>
        <mxCell id="AqbD70TO4c_D7pka246Y-20" style="rounded=0;orthogonalLoop=1;jettySize=auto;html=1;exitX=1;exitY=0.3333333333333333;exitDx=0;exitDy=0;exitPerimeter=0;entryX=0;entryY=0.5;entryDx=0;entryDy=0;" edge="1" parent="1" source="AqbD70TO4c_D7pka246Y-1" target="AqbD70TO4c_D7pka246Y-13">
          <mxGeometry relative="1" as="geometry" />
        </mxCell>
        <mxCell id="AqbD70TO4c_D7pka246Y-1" value="Пользователь" style="shape=umlActor;verticalLabelPosition=bottom;verticalAlign=top;html=1;" vertex="1" parent="1">
          <mxGeometry x="50" y="270" width="30" height="60" as="geometry" />
        </mxCell>
        <mxCell id="AqbD70TO4c_D7pka246Y-2" value="Добавить&lt;div&gt;запись&lt;/div&gt;" style="ellipse;whiteSpace=wrap;html=1;" vertex="1" parent="1">
          <mxGeometry x="190" y="130" width="100" height="30" as="geometry" />
        </mxCell>
        <mxCell id="AqbD70TO4c_D7pka246Y-3" value="Ввести название, описание, дату" style="ellipse;whiteSpace=wrap;html=1;" vertex="1" parent="1">
          <mxGeometry x="330" y="70" width="150" height="40" as="geometry" />
        </mxCell>
        <mxCell id="AqbD70TO4c_D7pka246Y-4" value="Просмотр записей" style="ellipse;whiteSpace=wrap;html=1;" vertex="1" parent="1">
          <mxGeometry x="190" y="190" width="100" height="40" as="geometry" />
        </mxCell>
        <mxCell id="AqbD70TO4c_D7pka246Y-5" value="Редактировать&lt;div&gt;запись&lt;/div&gt;" style="ellipse;whiteSpace=wrap;html=1;" vertex="1" parent="1">
          <mxGeometry x="350" y="130" width="100" height="40" as="geometry" />
        </mxCell>
        <mxCell id="AqbD70TO4c_D7pka246Y-6" value="Удалить&lt;div&gt;запись&lt;/div&gt;" style="ellipse;whiteSpace=wrap;html=1;" vertex="1" parent="1">
          <mxGeometry x="365" y="200" width="100" height="40" as="geometry" />
        </mxCell>
        <mxCell id="AqbD70TO4c_D7pka246Y-7" value="Поиск (отбор)&lt;div&gt;записей&lt;/div&gt;" style="ellipse;whiteSpace=wrap;html=1;" vertex="1" parent="1">
          <mxGeometry x="190" y="260" width="100" height="40" as="geometry" />
        </mxCell>
        <mxCell id="AqbD70TO4c_D7pka246Y-8" value="Ввести ключевое&lt;div&gt;слово&lt;/div&gt;" style="ellipse;whiteSpace=wrap;html=1;" vertex="1" parent="1">
          <mxGeometry x="365" y="260" width="130" height="40" as="geometry" />
        </mxCell>
        <mxCell id="AqbD70TO4c_D7pka246Y-9" value="Упорядочить записи по названию/дате" style="ellipse;whiteSpace=wrap;html=1;" vertex="1" parent="1">
          <mxGeometry x="180" y="330" width="160" height="40" as="geometry" />
        </mxCell>
        <mxCell id="AqbD70TO4c_D7pka246Y-12" value="Сохранить файл заметок" style="ellipse;whiteSpace=wrap;html=1;" vertex="1" parent="1">
          <mxGeometry x="180" y="400" width="160" height="40" as="geometry" />
        </mxCell>
        <mxCell id="AqbD70TO4c_D7pka246Y-13" value="Загрузить файл заметок" style="ellipse;whiteSpace=wrap;html=1;" vertex="1" parent="1">
          <mxGeometry x="180" y="470" width="160" height="40" as="geometry" />
        </mxCell>
        <mxCell id="AqbD70TO4c_D7pka246Y-14" value="Выбрать файл на диске" style="ellipse;whiteSpace=wrap;html=1;" vertex="1" parent="1">
          <mxGeometry x="400" y="430" width="160" height="40" as="geometry" />
        </mxCell>
        <mxCell id="AqbD70TO4c_D7pka246Y-21" value="" style="endArrow=classic;html=1;rounded=0;exitX=1;exitY=0;exitDx=0;exitDy=0;entryX=0;entryY=0.5;entryDx=0;entryDy=0;dashed=1;" edge="1" parent="1" source="AqbD70TO4c_D7pka246Y-2" target="AqbD70TO4c_D7pka246Y-3">
          <mxGeometry width="50" height="50" relative="1" as="geometry">
            <mxPoint x="235" y="100" as="sourcePoint" />
            <mxPoint x="285" y="50" as="targetPoint" />
          </mxGeometry>
        </mxCell>
        <mxCell id="AqbD70TO4c_D7pka246Y-22" value="include" style="edgeLabel;html=1;align=center;verticalAlign=middle;resizable=0;points=[];" vertex="1" connectable="0" parent="AqbD70TO4c_D7pka246Y-21">
          <mxGeometry x="-0.0114" y="1" relative="1" as="geometry">
            <mxPoint as="offset" />
          </mxGeometry>
        </mxCell>
        <mxCell id="AqbD70TO4c_D7pka246Y-24" value="" style="endArrow=classic;html=1;rounded=0;exitX=1;exitY=0;exitDx=0;exitDy=0;entryX=0;entryY=0.5;entryDx=0;entryDy=0;dashed=1;" edge="1" parent="1" source="AqbD70TO4c_D7pka246Y-4" target="AqbD70TO4c_D7pka246Y-5">
          <mxGeometry width="50" height="50" relative="1" as="geometry">
            <mxPoint x="295" y="190" as="sourcePoint" />
            <mxPoint x="350" y="146" as="targetPoint" />
          </mxGeometry>
        </mxCell>
        <mxCell id="AqbD70TO4c_D7pka246Y-25" value="extend" style="edgeLabel;html=1;align=center;verticalAlign=middle;resizable=0;points=[];" vertex="1" connectable="0" parent="AqbD70TO4c_D7pka246Y-24">
          <mxGeometry x="-0.0114" y="1" relative="1" as="geometry">
            <mxPoint as="offset" />
          </mxGeometry>
        </mxCell>
        <mxCell id="AqbD70TO4c_D7pka246Y-28" value="" style="endArrow=classic;html=1;rounded=0;exitX=1;exitY=0.5;exitDx=0;exitDy=0;entryX=0;entryY=0.5;entryDx=0;entryDy=0;dashed=1;" edge="1" parent="1" source="AqbD70TO4c_D7pka246Y-4" target="AqbD70TO4c_D7pka246Y-6">
          <mxGeometry width="50" height="50" relative="1" as="geometry">
            <mxPoint x="285" y="206" as="sourcePoint" />
            <mxPoint x="360" y="160" as="targetPoint" />
          </mxGeometry>
        </mxCell>
        <mxCell id="AqbD70TO4c_D7pka246Y-29" value="extend" style="edgeLabel;html=1;align=center;verticalAlign=middle;resizable=0;points=[];" vertex="1" connectable="0" parent="AqbD70TO4c_D7pka246Y-28">
          <mxGeometry x="-0.0114" y="1" relative="1" as="geometry">
            <mxPoint as="offset" />
          </mxGeometry>
        </mxCell>
        <mxCell id="AqbD70TO4c_D7pka246Y-30" value="" style="endArrow=classic;html=1;rounded=0;exitX=1;exitY=0.5;exitDx=0;exitDy=0;entryX=0;entryY=0.5;entryDx=0;entryDy=0;dashed=1;" edge="1" parent="1" source="AqbD70TO4c_D7pka246Y-7" target="AqbD70TO4c_D7pka246Y-8">
          <mxGeometry width="50" height="50" relative="1" as="geometry">
            <mxPoint x="285" y="144" as="sourcePoint" />
            <mxPoint x="340" y="100" as="targetPoint" />
          </mxGeometry>
        </mxCell>
        <mxCell id="AqbD70TO4c_D7pka246Y-31" value="include" style="edgeLabel;html=1;align=center;verticalAlign=middle;resizable=0;points=[];" vertex="1" connectable="0" parent="AqbD70TO4c_D7pka246Y-30">
          <mxGeometry x="-0.0114" y="1" relative="1" as="geometry">
            <mxPoint as="offset" />
          </mxGeometry>
        </mxCell>
        <mxCell id="AqbD70TO4c_D7pka246Y-32" value="" style="endArrow=classic;html=1;rounded=0;exitX=1;exitY=0.5;exitDx=0;exitDy=0;entryX=0;entryY=0.5;entryDx=0;entryDy=0;dashed=1;" edge="1" parent="1" source="AqbD70TO4c_D7pka246Y-12" target="AqbD70TO4c_D7pka246Y-14">
          <mxGeometry width="50" height="50" relative="1" as="geometry">
            <mxPoint x="295" y="154" as="sourcePoint" />
            <mxPoint x="350" y="110" as="targetPoint" />
          </mxGeometry>
        </mxCell>
        <mxCell id="AqbD70TO4c_D7pka246Y-33" value="include" style="edgeLabel;html=1;align=center;verticalAlign=middle;resizable=0;points=[];" vertex="1" connectable="0" parent="AqbD70TO4c_D7pka246Y-32">
          <mxGeometry x="-0.0114" y="1" relative="1" as="geometry">
            <mxPoint as="offset" />
          </mxGeometry>
        </mxCell>
        <mxCell id="AqbD70TO4c_D7pka246Y-36" value="" style="endArrow=classic;html=1;rounded=0;exitX=1;exitY=0.5;exitDx=0;exitDy=0;entryX=0;entryY=1;entryDx=0;entryDy=0;dashed=1;" edge="1" parent="1" source="AqbD70TO4c_D7pka246Y-13" target="AqbD70TO4c_D7pka246Y-14">
          <mxGeometry width="50" height="50" relative="1" as="geometry">
            <mxPoint x="305" y="164" as="sourcePoint" />
            <mxPoint x="360" y="120" as="targetPoint" />
          </mxGeometry>
        </mxCell>
        <mxCell id="AqbD70TO4c_D7pka246Y-37" value="include" style="edgeLabel;html=1;align=center;verticalAlign=middle;resizable=0;points=[];" vertex="1" connectable="0" parent="AqbD70TO4c_D7pka246Y-36">
          <mxGeometry x="-0.0114" y="1" relative="1" as="geometry">
            <mxPoint as="offset" />
          </mxGeometry>
        </mxCell>
      </root>
    </mxGraphModel>
  </diagram>
</mxfile>
